<?xml version="1.0" encoding="UTF-8"?>
<svg width="1200" height="700" viewBox="0 0 1200 700" xmlns="http://www.w3.org/2000/svg" role="img" aria-label="Salon still life illustration">
  <rect width="1200" height="700" fill="#f6f4f1"/>
  <g opacity="0.9">
    <path d="M230 520c0-120 90-220 210-220h320c120 0 210 100 210 220" fill="none" stroke="#1e1e1e" stroke-width="3" opacity="0.22"/>
    <rect x="290" y="380" width="620" height="170" rx="22" fill="#1e1e1e" opacity="0.06" stroke="#1e1e1e" stroke-opacity="0.18"/>
    <rect x="340" y="340" width="170" height="80" rx="18" fill="#8b6f47" opacity="0.10" stroke="#8b6f47" stroke-opacity="0.3"/>
    <rect x="520" y="330" width="220" height="90" rx="18" fill="#1e1e1e" opacity="0.05" stroke="#1e1e1e" stroke-opacity="0.15"/>
    <rect x="760" y="340" width="170" height="80" rx="18" fill="#8b6f47" opacity="0.10" stroke="#8b6f47" stroke-opacity="0.3"/>

    <path d="M560 270c0-55 40-90 80-90s80 35 80 90" fill="none" stroke="#8b6f47" stroke-width="3" opacity="0.35"/>
    <path d="M600 540v-90h200v90" fill="none" stroke="#1e1e1e" stroke-width="2" opacity="0.18"/>
  </g>

  <g opacity="0.22">
    <circle cx="210" cy="210" r="60" fill="none" stroke="#1e1e1e" stroke-width="2"/>
    <circle cx="210" cy="210" r="20" fill="#1e1e1e" opacity="0.07"/>
  </g>

  <rect x="90" y="90" width="1020" height="520" fill="none" stroke="#1e1e1e" opacity="0.12"/>
</svg>
